<?xml version="1.0" encoding="UTF-8" standalone="no"?>
<!DOCTYPE svg PUBLIC "-//W3C//DTD SVG 1.1//EN" "http://www.w3.org/Graphics/SVG/1.1/DTD/svg11.dtd">
<svg xmlns="http://www.w3.org/2000/svg" xmlns:xlink="http://www.w3.org/1999/xlink" version="1.1" width="1653.5556pt" height="2338.5833pt" viewBox="0 0 1653.5556 2338.5833">
<g enable-background="new">
<path transform="matrix(.3333333,0,0,-.3333333,0,2338.5833)" stroke-width="6" stroke-linecap="round" stroke-linejoin="round" fill="none" stroke="#000000" d="M 4885 5913.33 L 4885 1103.33 "/>
<path transform="matrix(.3333333,0,0,-.3333333,0,2338.5833)" stroke-width="6" stroke-linecap="round" stroke-linejoin="round" fill="none" stroke="#000000" d="M 75 5913.33 L 75 1103.33 L 4885 1103.33 "/>
<path transform="matrix(.3333333,0,0,-.3333333,0,2338.5833)" stroke-width="6" stroke-linecap="round" stroke-linejoin="round" fill="none" stroke="#000000" d="M 75 5913.33 L 4885 5913.33 M 700 3833.33 L 700 3512.33 "/>
<path transform="matrix(.3333333,0,0,-.3333333,0,2338.5833)" stroke-width="6" stroke-linecap="round" stroke-linejoin="round" fill="none" stroke="#000000" d="M 860 3352.33 L 859 3373.33 L 855 3394.33 L 848 3413.33 L 839 3432.33 L 827 3450.33 L 813 3466.33 L 797 3479.33 L 780 3491.33 L 761 3500.33 L 741 3507.33 L 721 3511.33 L 700 3512.33 L 679 3511.33 L 658 3507.33 L 639 3500.33 L 620 3491.33 L 602 3479.33 L 586 3466.33 L 573 3450.33 L 561 3432.33 L 552 3413.33 L 545 3394.33 L 541 3373.33 L 540 3352.33 L 541 3331.33 L 545 3311.33 L 552 3291.33 L 561 3272.33 L 573 3254.33 L 586 3239.33 L 602 3225.33 L 620 3213.33 L 639 3204.33 L 658 3197.33 L 679 3193.33 L 700 3192.33 L 721 3193.33 L 741 3197.33 L 761 3204.33 L 780 3213.33 L 797 3225.33 L 813 3239.33 L 827 3254.33 L 839 3272.33 L 848 3291.33 L 855 3311.33 L 859 3331.33 L 860 3352.33 Z "/>
<path transform="matrix(.3333333,0,0,-.3333333,0,2338.5833)" stroke-width="6" stroke-linecap="round" stroke-linejoin="round" fill="none" stroke="#000000" d="M 4260 3833.33 L 4260 3512.33 "/>
<path transform="matrix(.3333333,0,0,-.3333333,0,2338.5833)" stroke-width="6" stroke-linecap="round" stroke-linejoin="round" fill="none" stroke="#000000" d="M 4420 3352.33 L 4419 3373.33 L 4415 3394.33 L 4408 3413.33 L 4399 3432.33 L 4387 3450.33 L 4374 3466.33 L 4358 3479.33 L 4340 3491.33 L 4321 3500.33 L 4302 3507.33 L 4281 3511.33 L 4260 3512.33 L 4239 3511.33 L 4219 3507.33 L 4199 3500.33 L 4180 3491.33 L 4163 3479.33 L 4147 3466.33 L 4133 3450.33 L 4121 3432.33 L 4112 3413.33 L 4105 3394.33 L 4101 3373.33 L 4100 3352.33 L 4101 3331.33 L 4105 3311.33 L 4112 3291.33 L 4121 3272.33 L 4133 3254.33 L 4147 3239.33 L 4163 3225.33 L 4180 3213.33 L 4199 3204.33 L 4219 3197.33 L 4239 3193.33 L 4260 3192.33 L 4281 3193.33 L 4302 3197.33 L 4321 3204.33 L 4340 3213.33 L 4358 3225.33 L 4374 3239.33 L 4387 3254.33 L 4399 3272.33 L 4408 3291.33 L 4415 3311.33 L 4419 3331.33 L 4420 3352.33 Z "/>
</g>
</svg>
