<?xml version="1.0" encoding="UTF-8" standalone="no"?>
<!DOCTYPE svg PUBLIC "-//W3C//DTD SVG 1.1//EN" "http://www.w3.org/Graphics/SVG/1.1/DTD/svg11.dtd">
<svg xmlns="http://www.w3.org/2000/svg" xmlns:xlink="http://www.w3.org/1999/xlink" version="1.1" width="1653.5556pt" height="2338.5833pt" viewBox="0 0 1653.5556 2338.5833">
<g enable-background="new">
<path transform="matrix(.3333333,0,0,-.3333333,0,2338.5833)" stroke-width="6" stroke-linecap="round" stroke-linejoin="round" fill="none" stroke="#000000" d="M 4084 3668.33 L 4082 3734.33 L 4078 3799.33 L 4072 3864.33 L 4062 3929.33 L 4050 3993.33 L 4036 4057.33 L 4019 4120.33 L 3999 4183.33 L 3977 4244.33 L 3952 4305.33 L 3925 4364.33 L 3895 4423.33 L 3863 4480.33 L 3829 4535.33 L 3793 4590.33 L 3754 4642.33 L 3713 4694.33 L 3670 4743.33 L 3625 4791.33 L 3579 4836.33 L 3530 4880.33 L 3480 4922.33 L 3428 4962.33 L 3374 4999.33 L 3319 5035.33 L 3263 5068.33 L 3205 5099.33 L 3146 5127.33 L 3086 5153.33 L 3025 5177.33 L 2963 5198.33 L 2900 5216.33 L 2837 5232.33 L 2773 5245.33 L 2708 5256.33 L 2643 5264.33 L 2578 5269.33 L 2513 5272.33 L 2447 5272.33 L 2382 5269.33 L 2317 5264.33 L 2252 5256.33 L 2187 5245.33 L 2123 5232.33 L 2060 5216.33 L 1997 5198.33 L 1935 5177.33 L 1874 5153.33 L 1814 5127.33 L 1755 5099.33 L 1697 5068.33 L 1641 5035.33 L 1586 4999.33 L 1532 4962.33 L 1480 4922.33 L 1430 4880.33 L 1381 4836.33 L 1335 4791.33 L 1290 4743.33 L 1247 4694.33 L 1206 4642.33 L 1167 4590.33 L 1131 4535.33 L 1097 4480.33 L 1065 4423.33 L 1035 4364.33 L 1008 4305.33 L 983 4244.33 L 961 4183.33 L 941 4120.33 L 924 4057.33 L 910 3993.33 L 898 3929.33 L 888 3864.33 L 882 3799.33 L 878 3734.33 L 876 3668.33 L 878 3603.33 L 882 3538.33 L 888 3473.33 L 898 3408.33 L 910 3343.33 L 924 3280.33 L 941 3217.33 L 961 3154.33 L 983 3093.33 L 1008 3032.33 L 1035 2973.33 L 1065 2914.33 L 1097 2857.33 L 1131 2801.33 L 1167 2747.33 L 1206 2694.33 L 1247 2643.33 L 1290 2594.33 L 1335 2546.33 L 1381 2500.33 L 1430 2456.33 L 1480 2415.33 L 1532 2375.33 L 1586 2337.33 L 1641 2302.33 L 1697 2269.33 L 1755 2238.33 L 1814 2210.33 L 1874 2184.33 L 1935 2160.33 L 1997 2139.33 L 2060 2121.33 L 2123 2105.33 L 2187 2092.33 L 2252 2081.33 L 2317 2073.33 L 2382 2068.33 L 2447 2065.33 L 2513 2065.33 L 2578 2068.33 L 2643 2073.33 L 2708 2081.33 L 2773 2092.33 L 2837 2105.33 L 2900 2121.33 L 2963 2139.33 L 3025 2160.33 L 3086 2184.33 L 3146 2210.33 L 3205 2238.33 L 3263 2269.33 L 3319 2302.33 L 3374 2337.33 L 3428 2375.33 L 3480 2415.33 L 3530 2456.33 L 3579 2500.33 L 3625 2546.33 L 3670 2594.33 L 3713 2643.33 L 3754 2694.33 L 3793 2747.33 L 3829 2801.33 L 3863 2857.33 L 3895 2914.33 L 3925 2973.33 L 3952 3032.33 L 3977 3093.33 L 3999 3154.33 L 4019 3217.33 L 4036 3280.33 L 4050 3343.33 L 4062 3408.33 L 4072 3473.33 L 4078 3538.33 L 4082 3603.33 L 4084 3668.33 Z "/>
<path transform="matrix(.3333333,0,0,-.3333333,0,2338.5833)" stroke-width="6" stroke-linecap="round" stroke-linejoin="round" fill="none" stroke="#000000" d="M 1763 3027.33 L 1798 2990.33 L 1834 2955.33 L 1872 2922.33 L 1913 2891.33 L 1954 2863.33 L 1997 2836.33 L 2042 2812.33 L 2087 2790.33 L 2134 2771.33 L 2182 2754.33 L 2230 2739.33 L 2279 2727.33 L 2329 2718.33 L 2379 2711.33 L 2429 2707.33 L 2480 2706.33 L 2531 2707.33 L 2581 2711.33 L 2631 2718.33 L 2681 2727.33 L 2730 2739.33 L 2778 2754.33 L 2826 2771.33 L 2873 2790.33 L 2918 2812.33 L 2963 2836.33 L 3006 2863.33 L 3047 2891.33 L 3088 2922.33 L 3126 2955.33 L 3162 2990.33 L 3197 3027.33 "/>
<path transform="matrix(.3333333,0,0,-.3333333,0,2338.5833)" stroke-width="6" stroke-linecap="round" stroke-linejoin="round" fill="none" stroke="#000000" d="M 2003 4149.33 L 2002 4175.33 L 1998 4201.33 L 1991 4226.33 L 1981 4250.33 L 1969 4273.33 L 1954 4295.33 L 1937 4315.33 L 1919 4333.33 L 1898 4349.33 L 1875 4362.33 L 1852 4373.33 L 1827 4381.33 L 1802 4387.33 L 1776 4390.33 L 1750 4390.33 L 1724 4387.33 L 1698 4381.33 L 1674 4373.33 L 1650 4362.33 L 1628 4349.33 L 1607 4333.33 L 1588 4315.33 L 1571 4295.33 L 1557 4273.33 L 1545 4250.33 L 1535 4226.33 L 1528 4201.33 L 1524 4175.33 L 1522 4149.33 L 1524 4123.33 L 1528 4098.33 L 1535 4073.33 L 1545 4048.33 L 1557 4025.33 L 1571 4004.33 L 1588 3984.33 L 1607 3966.33 L 1628 3950.33 L 1650 3937.33 L 1674 3926.33 L 1698 3918.33 L 1724 3912.33 L 1750 3909.33 L 1776 3909.33 L 1802 3912.33 L 1827 3918.33 L 1852 3926.33 L 1875 3937.33 L 1898 3950.33 L 1919 3966.33 L 1937 3984.33 L 1954 4004.33 L 1969 4025.33 L 1981 4048.33 L 1991 4073.33 L 1998 4098.33 L 2002 4123.33 L 2003 4149.33 Z "/>
<path transform="matrix(.3333333,0,0,-.3333333,0,2338.5833)" stroke-width="6" stroke-linecap="round" stroke-linejoin="round" fill="none" stroke="#000000" d="M 3438 4149.33 L 3436 4175.33 L 3432 4201.33 L 3425 4226.33 L 3415 4250.33 L 3403 4273.33 L 3389 4295.33 L 3372 4315.33 L 3353 4333.33 L 3332 4349.33 L 3310 4362.33 L 3286 4373.33 L 3262 4381.33 L 3236 4387.33 L 3210 4390.33 L 3184 4390.33 L 3158 4387.33 L 3133 4381.33 L 3108 4373.33 L 3085 4362.33 L 3062 4349.33 L 3041 4333.33 L 3023 4315.33 L 3006 4295.33 L 2991 4273.33 L 2979 4250.33 L 2969 4226.33 L 2962 4201.33 L 2958 4175.33 L 2957 4149.33 L 2958 4123.33 L 2962 4098.33 L 2969 4073.33 L 2979 4048.33 L 2991 4025.33 L 3006 4004.33 L 3023 3984.33 L 3041 3966.33 L 3062 3950.33 L 3085 3937.33 L 3108 3926.33 L 3133 3918.33 L 3158 3912.33 L 3184 3909.33 L 3210 3909.33 L 3236 3912.33 L 3262 3918.33 L 3286 3926.33 L 3310 3937.33 L 3332 3950.33 L 3353 3966.33 L 3372 3984.33 L 3389 4004.33 L 3403 4025.33 L 3415 4048.33 L 3425 4073.33 L 3432 4098.33 L 3436 4123.33 L 3438 4149.33 Z "/>
<path transform="matrix(.3333333,0,0,-.3333333,0,2338.5833)" stroke-width="6" stroke-linecap="round" stroke-linejoin="round" fill="none" stroke="#000000" d="M 2480 3833.33 L 2198 3345.33 L 2762 3345.33 L 2480 3833.33 Z "/>
<path transform="matrix(.3333333,0,0,-.3333333,0,2338.5833)" stroke-width="6" stroke-linecap="round" stroke-linejoin="round" fill="none" stroke="#000000" d="M 4084 3668.33 L 4101 3670.33 L 4118 3673.33 L 4134 3679.33 L 4151 3687.33 L 4167 3697.33 L 4182 3709.33 L 4197 3723.33 L 4210 3739.33 L 4223 3757.33 L 4235 3777.33 L 4246 3798.33 L 4255 3820.33 L 4264 3844.33 L 4271 3869.33 L 4277 3894.33 L 4281 3921.33 L 4284 3947.33 L 4285 3974.33 L 4285 4002.33 L 4284 4029.33 L 4281 4055.33 L 4277 4082.33 L 4271 4107.33 L 4264 4132.33 L 4256 4156.33 L 4247 4179.33 L 4236 4200.33 L 4224 4219.33 L 4211 4238.33 L 4198 4254.33 L 4183 4268.33 L 4168 4281.33 L 4152 4291.33 L 4136 4299.33 L 4119 4305.33 L 4102 4308.33 L 4085 4310.33 L 4068 4309.33 L 4051 4306.33 L 4034 4300.33 L 4018 4292.33 L 4002 4282.33 L 3987 4270.33 L 3972 4256.33 "/>
<path transform="matrix(.3333333,0,0,-.3333333,0,2338.5833)" stroke-width="6" stroke-linecap="round" stroke-linejoin="round" fill="none" stroke="#000000" d="M 876 3668.33 L 859 3670.33 L 842 3673.33 L 826 3679.33 L 809 3687.33 L 793 3697.33 L 778 3709.33 L 763 3723.33 L 750 3739.33 L 737 3757.33 L 725 3777.33 L 714 3798.33 L 705 3820.33 L 696 3844.33 L 689 3869.33 L 683 3894.33 L 679 3921.33 L 676 3947.33 L 675 3974.33 L 675 4002.33 L 676 4029.33 L 679 4055.33 L 683 4082.33 L 689 4107.33 L 696 4132.33 L 704 4156.33 L 713 4179.33 L 724 4200.33 L 736 4219.33 L 749 4238.33 L 762 4254.33 L 777 4268.33 L 792 4281.33 L 808 4291.33 L 824 4299.33 L 841 4305.33 L 858 4308.33 L 875 4310.33 L 892 4309.33 L 909 4306.33 L 926 4300.33 L 942 4292.33 L 958 4282.33 L 973 4270.33 L 988 4256.33 "/>
<path transform="matrix(.3333333,0,0,-.3333333,0,2338.5833)" stroke-width="6" stroke-linecap="round" stroke-linejoin="round" fill="none" stroke="#000000" d="M 4885 5913.33 L 4885 1103.33 "/>
<path transform="matrix(.3333333,0,0,-.3333333,0,2338.5833)" stroke-width="6" stroke-linecap="round" stroke-linejoin="round" fill="none" stroke="#000000" d="M 75 5913.33 L 75 1103.33 L 4885 1103.33 "/>
<path transform="matrix(.3333333,0,0,-.3333333,0,2338.5833)" stroke-width="6" stroke-linecap="round" stroke-linejoin="round" fill="none" stroke="#000000" d="M 75 5913.33 L 4885 5913.33 "/>
</g>
</svg>
