<?xml version="1.0" encoding="UTF-8" standalone="no"?>
<!DOCTYPE svg PUBLIC "-//W3C//DTD SVG 1.1//EN" "http://www.w3.org/Graphics/SVG/1.1/DTD/svg11.dtd">
<svg xmlns="http://www.w3.org/2000/svg" xmlns:xlink="http://www.w3.org/1999/xlink" version="1.1" width="1653.5556pt" height="2338.5833pt" viewBox="0 0 1653.5556 2338.5833">
<g enable-background="new">
<path transform="matrix(.3333333,0,0,-.3333333,0,2338.5833)" stroke-width="6" stroke-linecap="round" stroke-linejoin="round" fill="none" stroke="#000000" d="M 4084 3668.33 L 4106 3670.33 L 4129 3677.33 L 4151 3687.33 L 4172 3701.33 L 4192 3718.33 L 4210 3739.33 L 4227 3764.33 L 4242 3791.33 L 4255 3820.33 L 4266 3852.33 L 4275 3886.33 L 4281 3921.33 L 4285 3956.33 L 4286 3993.33 L 4284 4029.33 L 4280 4064.33 L 4273 4099.33 L 4264 4132.33 L 4253 4164.33 L 4240 4193.33 L 4224 4219.33 L 4207 4243.33 L 4188 4264.33 L 4168 4281.33 L 4147 4294.33 L 4125 4303.33 L 4102 4308.33 L 4079 4310.33 L 4057 4307.33 L 4034 4300.33 L 4013 4289.33 L 3992 4275.33 L 3972 4256.33 "/>
<path transform="matrix(.3333333,0,0,-.3333333,0,2338.5833)" stroke-width="6" stroke-linecap="round" stroke-linejoin="round" fill="none" stroke="#000000" d="M 876 3668.33 L 854 3670.33 L 831 3677.33 L 809 3687.33 L 788 3701.33 L 768 3718.33 L 750 3739.33 L 733 3764.33 L 718 3791.33 L 705 3820.33 L 694 3852.33 L 685 3886.33 L 679 3921.33 L 675 3956.33 L 674 3993.33 L 676 4029.33 L 680 4064.33 L 687 4099.33 L 696 4132.33 L 707 4164.33 L 720 4193.33 L 736 4219.33 L 753 4243.33 L 772 4264.33 L 792 4281.33 L 813 4294.33 L 835 4303.33 L 858 4308.33 L 881 4310.33 L 903 4307.33 L 926 4300.33 L 947 4289.33 L 968 4275.33 L 988 4256.33 "/>
<path transform="matrix(.3333333,0,0,-.3333333,0,2338.5833)" stroke-width="6" stroke-linecap="round" stroke-linejoin="round" fill="none" stroke="#000000" d="M 4885 5913.33 L 4885 1103.33 "/>
<path transform="matrix(.3333333,0,0,-.3333333,0,2338.5833)" stroke-width="6" stroke-linecap="round" stroke-linejoin="round" fill="none" stroke="#000000" d="M 75 5913.33 L 75 1103.33 L 4885 1103.33 "/>
<path transform="matrix(.3333333,0,0,-.3333333,0,2338.5833)" stroke-width="6" stroke-linecap="round" stroke-linejoin="round" fill="none" stroke="#000000" d="M 75 5913.33 L 4885 5913.33 "/>
</g>
</svg>
