<?xml version="1.0" encoding="UTF-8" standalone="no"?>
<!DOCTYPE svg PUBLIC "-//W3C//DTD SVG 1.1//EN" "http://www.w3.org/Graphics/SVG/1.1/DTD/svg11.dtd">
<svg xmlns="http://www.w3.org/2000/svg" xmlns:xlink="http://www.w3.org/1999/xlink" version="1.1" width="1653.5556pt" height="2338.5833pt" viewBox="0 0 1653.5556 2338.5833">
<g enable-background="new">
<path transform="matrix(.3333333,0,0,-.3333333,0,2338.5833)" stroke-width="6" stroke-linecap="round" stroke-linejoin="round" fill="none" stroke="#000000" d="M 1843 4149.33 L 1842 4164.33 L 1838 4178.33 L 1831 4192.33 L 1822 4203.33 L 1811 4213.33 L 1799 4221.33 L 1785 4227.33 L 1770 4229.33 L 1755 4229.33 L 1741 4227.33 L 1727 4221.33 L 1714 4213.33 L 1704 4203.33 L 1695 4192.33 L 1688 4178.33 L 1684 4164.33 L 1683 4149.33 L 1684 4135.33 L 1688 4121.33 L 1695 4107.33 L 1704 4095.33 L 1714 4085.33 L 1727 4078.33 L 1741 4072.33 L 1755 4070.33 L 1770 4070.33 L 1785 4072.33 L 1799 4078.33 L 1811 4085.33 L 1822 4095.33 L 1831 4107.33 L 1838 4121.33 L 1842 4135.33 L 1843 4149.33 Z "/>
<path transform="matrix(.3333333,0,0,-.3333333,0,2338.5833)" d="M 1763 4230.33 L 1745 4228.33 L 1781 4228.33 " fill-rule="evenodd"/>
<path transform="matrix(.3333333,0,0,-.3333333,0,2338.5833)" stroke-width="1" stroke-linecap="round" stroke-linejoin="round" fill="none" stroke="#000000" d="M 1763 4230.33 L 1745 4228.33 L 1781 4228.33 Z "/>
<path transform="matrix(.3333333,0,0,-.3333333,0,2338.5833)" d="M 3197 4230.33 L 3179 4228.33 L 3215 4228.33 " fill-rule="evenodd"/>
<path transform="matrix(.3333333,0,0,-.3333333,0,2338.5833)" stroke-width="1" stroke-linecap="round" stroke-linejoin="round" fill="none" stroke="#000000" d="M 3197 4230.33 L 3179 4228.33 L 3215 4228.33 Z "/>
<path transform="matrix(.3333333,0,0,-.3333333,0,2338.5833)" d="M 1745 4228.33 L 1728 4222.33 L 1798 4222.33 " fill-rule="evenodd"/>
<path transform="matrix(.3333333,0,0,-.3333333,0,2338.5833)" stroke-width="1" stroke-linecap="round" stroke-linejoin="round" fill="none" stroke="#000000" d="M 1745 4228.33 L 1728 4222.33 L 1798 4222.33 Z "/>
<path transform="matrix(.3333333,0,0,-.3333333,0,2338.5833)" d="M 1745 4228.33 L 1781 4228.33 L 1798 4222.33 " fill-rule="evenodd"/>
<path transform="matrix(.3333333,0,0,-.3333333,0,2338.5833)" stroke-width="1" stroke-linecap="round" stroke-linejoin="round" fill="none" stroke="#000000" d="M 1745 4228.33 L 1781 4228.33 L 1798 4222.33 Z "/>
<path transform="matrix(.3333333,0,0,-.3333333,0,2338.5833)" d="M 3179 4228.33 L 3162 4222.33 L 3232 4222.33 " fill-rule="evenodd"/>
<path transform="matrix(.3333333,0,0,-.3333333,0,2338.5833)" stroke-width="1" stroke-linecap="round" stroke-linejoin="round" fill="none" stroke="#000000" d="M 3179 4228.33 L 3162 4222.33 L 3232 4222.33 Z "/>
<path transform="matrix(.3333333,0,0,-.3333333,0,2338.5833)" d="M 3179 4228.33 L 3215 4228.33 L 3232 4222.33 " fill-rule="evenodd"/>
<path transform="matrix(.3333333,0,0,-.3333333,0,2338.5833)" stroke-width="1" stroke-linecap="round" stroke-linejoin="round" fill="none" stroke="#000000" d="M 3179 4228.33 L 3215 4228.33 L 3232 4222.33 Z "/>
<path transform="matrix(.3333333,0,0,-.3333333,0,2338.5833)" d="M 1728 4222.33 L 1713 4212.33 L 1813 4212.33 " fill-rule="evenodd"/>
<path transform="matrix(.3333333,0,0,-.3333333,0,2338.5833)" stroke-width="1" stroke-linecap="round" stroke-linejoin="round" fill="none" stroke="#000000" d="M 1728 4222.33 L 1713 4212.33 L 1813 4212.33 Z "/>
<path transform="matrix(.3333333,0,0,-.3333333,0,2338.5833)" d="M 1728 4222.33 L 1798 4222.33 L 1813 4212.33 " fill-rule="evenodd"/>
<path transform="matrix(.3333333,0,0,-.3333333,0,2338.5833)" stroke-width="1" stroke-linecap="round" stroke-linejoin="round" fill="none" stroke="#000000" d="M 1728 4222.33 L 1798 4222.33 L 1813 4212.33 Z "/>
<path transform="matrix(.3333333,0,0,-.3333333,0,2338.5833)" d="M 3162 4222.33 L 3147 4212.33 L 3247 4212.33 " fill-rule="evenodd"/>
<path transform="matrix(.3333333,0,0,-.3333333,0,2338.5833)" stroke-width="1" stroke-linecap="round" stroke-linejoin="round" fill="none" stroke="#000000" d="M 3162 4222.33 L 3147 4212.33 L 3247 4212.33 Z "/>
<path transform="matrix(.3333333,0,0,-.3333333,0,2338.5833)" d="M 3162 4222.33 L 3232 4222.33 L 3247 4212.33 " fill-rule="evenodd"/>
<path transform="matrix(.3333333,0,0,-.3333333,0,2338.5833)" stroke-width="1" stroke-linecap="round" stroke-linejoin="round" fill="none" stroke="#000000" d="M 3162 4222.33 L 3232 4222.33 L 3247 4212.33 Z "/>
<path transform="matrix(.3333333,0,0,-.3333333,0,2338.5833)" d="M 1713 4212.33 L 1700 4199.33 L 1826 4199.33 " fill-rule="evenodd"/>
<path transform="matrix(.3333333,0,0,-.3333333,0,2338.5833)" stroke-width="1" stroke-linecap="round" stroke-linejoin="round" fill="none" stroke="#000000" d="M 1713 4212.33 L 1700 4199.33 L 1826 4199.33 Z "/>
<path transform="matrix(.3333333,0,0,-.3333333,0,2338.5833)" d="M 1713 4212.33 L 1813 4212.33 L 1826 4199.33 " fill-rule="evenodd"/>
<path transform="matrix(.3333333,0,0,-.3333333,0,2338.5833)" stroke-width="1" stroke-linecap="round" stroke-linejoin="round" fill="none" stroke="#000000" d="M 1713 4212.33 L 1813 4212.33 L 1826 4199.33 Z "/>
<path transform="matrix(.3333333,0,0,-.3333333,0,2338.5833)" d="M 3147 4212.33 L 3134 4199.33 L 3260 4199.33 " fill-rule="evenodd"/>
<path transform="matrix(.3333333,0,0,-.3333333,0,2338.5833)" stroke-width="1" stroke-linecap="round" stroke-linejoin="round" fill="none" stroke="#000000" d="M 3147 4212.33 L 3134 4199.33 L 3260 4199.33 Z "/>
<path transform="matrix(.3333333,0,0,-.3333333,0,2338.5833)" d="M 3147 4212.33 L 3247 4212.33 L 3260 4199.33 " fill-rule="evenodd"/>
<path transform="matrix(.3333333,0,0,-.3333333,0,2338.5833)" stroke-width="1" stroke-linecap="round" stroke-linejoin="round" fill="none" stroke="#000000" d="M 3147 4212.33 L 3247 4212.33 L 3260 4199.33 Z "/>
<path transform="matrix(.3333333,0,0,-.3333333,0,2338.5833)" d="M 1700 4199.33 L 1691 4184.33 L 1835 4184.33 " fill-rule="evenodd"/>
<path transform="matrix(.3333333,0,0,-.3333333,0,2338.5833)" stroke-width="1" stroke-linecap="round" stroke-linejoin="round" fill="none" stroke="#000000" d="M 1700 4199.33 L 1691 4184.33 L 1835 4184.33 Z "/>
<path transform="matrix(.3333333,0,0,-.3333333,0,2338.5833)" d="M 1700 4199.33 L 1826 4199.33 L 1835 4184.33 " fill-rule="evenodd"/>
<path transform="matrix(.3333333,0,0,-.3333333,0,2338.5833)" stroke-width="1" stroke-linecap="round" stroke-linejoin="round" fill="none" stroke="#000000" d="M 1700 4199.33 L 1826 4199.33 L 1835 4184.33 Z "/>
<path transform="matrix(.3333333,0,0,-.3333333,0,2338.5833)" d="M 3134 4199.33 L 3125 4184.33 L 3269 4184.33 " fill-rule="evenodd"/>
<path transform="matrix(.3333333,0,0,-.3333333,0,2338.5833)" stroke-width="1" stroke-linecap="round" stroke-linejoin="round" fill="none" stroke="#000000" d="M 3134 4199.33 L 3125 4184.33 L 3269 4184.33 Z "/>
<path transform="matrix(.3333333,0,0,-.3333333,0,2338.5833)" d="M 3134 4199.33 L 3260 4199.33 L 3269 4184.33 " fill-rule="evenodd"/>
<path transform="matrix(.3333333,0,0,-.3333333,0,2338.5833)" stroke-width="1" stroke-linecap="round" stroke-linejoin="round" fill="none" stroke="#000000" d="M 3134 4199.33 L 3260 4199.33 L 3269 4184.33 Z "/>
<path transform="matrix(.3333333,0,0,-.3333333,0,2338.5833)" d="M 1691 4184.33 L 1685 4167.33 L 1841 4167.33 " fill-rule="evenodd"/>
<path transform="matrix(.3333333,0,0,-.3333333,0,2338.5833)" stroke-width="1" stroke-linecap="round" stroke-linejoin="round" fill="none" stroke="#000000" d="M 1691 4184.33 L 1685 4167.33 L 1841 4167.33 Z "/>
<path transform="matrix(.3333333,0,0,-.3333333,0,2338.5833)" d="M 1691 4184.33 L 1835 4184.33 L 1841 4167.33 " fill-rule="evenodd"/>
<path transform="matrix(.3333333,0,0,-.3333333,0,2338.5833)" stroke-width="1" stroke-linecap="round" stroke-linejoin="round" fill="none" stroke="#000000" d="M 1691 4184.33 L 1835 4184.33 L 1841 4167.33 Z "/>
<path transform="matrix(.3333333,0,0,-.3333333,0,2338.5833)" d="M 3125 4184.33 L 3119 4167.33 L 3275 4167.33 " fill-rule="evenodd"/>
<path transform="matrix(.3333333,0,0,-.3333333,0,2338.5833)" stroke-width="1" stroke-linecap="round" stroke-linejoin="round" fill="none" stroke="#000000" d="M 3125 4184.33 L 3119 4167.33 L 3275 4167.33 Z "/>
<path transform="matrix(.3333333,0,0,-.3333333,0,2338.5833)" d="M 3125 4184.33 L 3269 4184.33 L 3275 4167.33 " fill-rule="evenodd"/>
<path transform="matrix(.3333333,0,0,-.3333333,0,2338.5833)" stroke-width="1" stroke-linecap="round" stroke-linejoin="round" fill="none" stroke="#000000" d="M 3125 4184.33 L 3269 4184.33 L 3275 4167.33 Z "/>
<path transform="matrix(.3333333,0,0,-.3333333,0,2338.5833)" d="M 1685 4167.33 L 1683 4149.33 L 1843 4149.33 " fill-rule="evenodd"/>
<path transform="matrix(.3333333,0,0,-.3333333,0,2338.5833)" stroke-width="1" stroke-linecap="round" stroke-linejoin="round" fill="none" stroke="#000000" d="M 1685 4167.33 L 1683 4149.33 L 1843 4149.33 Z "/>
<path transform="matrix(.3333333,0,0,-.3333333,0,2338.5833)" d="M 1685 4167.33 L 1841 4167.33 L 1843 4149.33 " fill-rule="evenodd"/>
<path transform="matrix(.3333333,0,0,-.3333333,0,2338.5833)" stroke-width="1" stroke-linecap="round" stroke-linejoin="round" fill="none" stroke="#000000" d="M 1685 4167.33 L 1841 4167.33 L 1843 4149.33 Z "/>
<path transform="matrix(.3333333,0,0,-.3333333,0,2338.5833)" d="M 3119 4167.33 L 3117 4149.33 L 3277 4149.33 " fill-rule="evenodd"/>
<path transform="matrix(.3333333,0,0,-.3333333,0,2338.5833)" stroke-width="1" stroke-linecap="round" stroke-linejoin="round" fill="none" stroke="#000000" d="M 3119 4167.33 L 3117 4149.33 L 3277 4149.33 Z "/>
<path transform="matrix(.3333333,0,0,-.3333333,0,2338.5833)" d="M 3119 4167.33 L 3275 4167.33 L 3277 4149.33 " fill-rule="evenodd"/>
<path transform="matrix(.3333333,0,0,-.3333333,0,2338.5833)" stroke-width="1" stroke-linecap="round" stroke-linejoin="round" fill="none" stroke="#000000" d="M 3119 4167.33 L 3275 4167.33 L 3277 4149.33 Z "/>
<path transform="matrix(.3333333,0,0,-.3333333,0,2338.5833)" d="M 1683 4149.33 L 1685 4132.33 L 1841 4132.33 " fill-rule="evenodd"/>
<path transform="matrix(.3333333,0,0,-.3333333,0,2338.5833)" stroke-width="1" stroke-linecap="round" stroke-linejoin="round" fill="none" stroke="#000000" d="M 1683 4149.33 L 1685 4132.33 L 1841 4132.33 Z "/>
<path transform="matrix(.3333333,0,0,-.3333333,0,2338.5833)" d="M 1683 4149.33 L 1843 4149.33 L 1841 4132.33 " fill-rule="evenodd"/>
<path transform="matrix(.3333333,0,0,-.3333333,0,2338.5833)" stroke-width="1" stroke-linecap="round" stroke-linejoin="round" fill="none" stroke="#000000" d="M 1683 4149.33 L 1843 4149.33 L 1841 4132.33 Z "/>
<path transform="matrix(.3333333,0,0,-.3333333,0,2338.5833)" d="M 3117 4149.33 L 3119 4132.33 L 3275 4132.33 " fill-rule="evenodd"/>
<path transform="matrix(.3333333,0,0,-.3333333,0,2338.5833)" stroke-width="1" stroke-linecap="round" stroke-linejoin="round" fill="none" stroke="#000000" d="M 3117 4149.33 L 3119 4132.33 L 3275 4132.33 Z "/>
<path transform="matrix(.3333333,0,0,-.3333333,0,2338.5833)" d="M 3117 4149.33 L 3277 4149.33 L 3275 4132.33 " fill-rule="evenodd"/>
<path transform="matrix(.3333333,0,0,-.3333333,0,2338.5833)" stroke-width="1" stroke-linecap="round" stroke-linejoin="round" fill="none" stroke="#000000" d="M 3117 4149.33 L 3277 4149.33 L 3275 4132.33 Z "/>
<path transform="matrix(.3333333,0,0,-.3333333,0,2338.5833)" d="M 1685 4132.33 L 1691 4115.33 L 1835 4115.33 " fill-rule="evenodd"/>
<path transform="matrix(.3333333,0,0,-.3333333,0,2338.5833)" stroke-width="1" stroke-linecap="round" stroke-linejoin="round" fill="none" stroke="#000000" d="M 1685 4132.33 L 1691 4115.33 L 1835 4115.33 Z "/>
<path transform="matrix(.3333333,0,0,-.3333333,0,2338.5833)" d="M 1685 4132.33 L 1841 4132.33 L 1835 4115.33 " fill-rule="evenodd"/>
<path transform="matrix(.3333333,0,0,-.3333333,0,2338.5833)" stroke-width="1" stroke-linecap="round" stroke-linejoin="round" fill="none" stroke="#000000" d="M 1685 4132.33 L 1841 4132.33 L 1835 4115.33 Z "/>
<path transform="matrix(.3333333,0,0,-.3333333,0,2338.5833)" d="M 3119 4132.33 L 3125 4115.33 L 3269 4115.33 " fill-rule="evenodd"/>
<path transform="matrix(.3333333,0,0,-.3333333,0,2338.5833)" stroke-width="1" stroke-linecap="round" stroke-linejoin="round" fill="none" stroke="#000000" d="M 3119 4132.33 L 3125 4115.33 L 3269 4115.33 Z "/>
<path transform="matrix(.3333333,0,0,-.3333333,0,2338.5833)" d="M 3119 4132.33 L 3275 4132.33 L 3269 4115.33 " fill-rule="evenodd"/>
<path transform="matrix(.3333333,0,0,-.3333333,0,2338.5833)" stroke-width="1" stroke-linecap="round" stroke-linejoin="round" fill="none" stroke="#000000" d="M 3119 4132.33 L 3275 4132.33 L 3269 4115.33 Z "/>
<path transform="matrix(.3333333,0,0,-.3333333,0,2338.5833)" d="M 1691 4115.33 L 1700 4099.33 L 1826 4099.33 " fill-rule="evenodd"/>
<path transform="matrix(.3333333,0,0,-.3333333,0,2338.5833)" stroke-width="1" stroke-linecap="round" stroke-linejoin="round" fill="none" stroke="#000000" d="M 1691 4115.33 L 1700 4099.33 L 1826 4099.33 Z "/>
<path transform="matrix(.3333333,0,0,-.3333333,0,2338.5833)" d="M 1691 4115.33 L 1835 4115.33 L 1826 4099.33 " fill-rule="evenodd"/>
<path transform="matrix(.3333333,0,0,-.3333333,0,2338.5833)" stroke-width="1" stroke-linecap="round" stroke-linejoin="round" fill="none" stroke="#000000" d="M 1691 4115.33 L 1835 4115.33 L 1826 4099.33 Z "/>
<path transform="matrix(.3333333,0,0,-.3333333,0,2338.5833)" d="M 3125 4115.33 L 3134 4099.33 L 3260 4099.33 " fill-rule="evenodd"/>
<path transform="matrix(.3333333,0,0,-.3333333,0,2338.5833)" stroke-width="1" stroke-linecap="round" stroke-linejoin="round" fill="none" stroke="#000000" d="M 3125 4115.33 L 3134 4099.33 L 3260 4099.33 Z "/>
<path transform="matrix(.3333333,0,0,-.3333333,0,2338.5833)" d="M 3125 4115.33 L 3269 4115.33 L 3260 4099.33 " fill-rule="evenodd"/>
<path transform="matrix(.3333333,0,0,-.3333333,0,2338.5833)" stroke-width="1" stroke-linecap="round" stroke-linejoin="round" fill="none" stroke="#000000" d="M 3125 4115.33 L 3269 4115.33 L 3260 4099.33 Z "/>
<path transform="matrix(.3333333,0,0,-.3333333,0,2338.5833)" d="M 1700 4099.33 L 1713 4087.33 L 1813 4087.33 " fill-rule="evenodd"/>
<path transform="matrix(.3333333,0,0,-.3333333,0,2338.5833)" stroke-width="1" stroke-linecap="round" stroke-linejoin="round" fill="none" stroke="#000000" d="M 1700 4099.33 L 1713 4087.33 L 1813 4087.33 Z "/>
<path transform="matrix(.3333333,0,0,-.3333333,0,2338.5833)" d="M 1700 4099.33 L 1826 4099.33 L 1813 4087.33 " fill-rule="evenodd"/>
<path transform="matrix(.3333333,0,0,-.3333333,0,2338.5833)" stroke-width="1" stroke-linecap="round" stroke-linejoin="round" fill="none" stroke="#000000" d="M 1700 4099.33 L 1826 4099.33 L 1813 4087.33 Z "/>
<path transform="matrix(.3333333,0,0,-.3333333,0,2338.5833)" d="M 3134 4099.33 L 3147 4087.33 L 3247 4087.33 " fill-rule="evenodd"/>
<path transform="matrix(.3333333,0,0,-.3333333,0,2338.5833)" stroke-width="1" stroke-linecap="round" stroke-linejoin="round" fill="none" stroke="#000000" d="M 3134 4099.33 L 3147 4087.33 L 3247 4087.33 Z "/>
<path transform="matrix(.3333333,0,0,-.3333333,0,2338.5833)" d="M 3134 4099.33 L 3260 4099.33 L 3247 4087.33 " fill-rule="evenodd"/>
<path transform="matrix(.3333333,0,0,-.3333333,0,2338.5833)" stroke-width="1" stroke-linecap="round" stroke-linejoin="round" fill="none" stroke="#000000" d="M 3134 4099.33 L 3260 4099.33 L 3247 4087.33 Z "/>
<path transform="matrix(.3333333,0,0,-.3333333,0,2338.5833)" d="M 1713 4087.33 L 1728 4077.33 L 1798 4077.33 " fill-rule="evenodd"/>
<path transform="matrix(.3333333,0,0,-.3333333,0,2338.5833)" stroke-width="1" stroke-linecap="round" stroke-linejoin="round" fill="none" stroke="#000000" d="M 1713 4087.33 L 1728 4077.33 L 1798 4077.33 Z "/>
<path transform="matrix(.3333333,0,0,-.3333333,0,2338.5833)" d="M 1713 4087.33 L 1813 4087.33 L 1798 4077.33 " fill-rule="evenodd"/>
<path transform="matrix(.3333333,0,0,-.3333333,0,2338.5833)" stroke-width="1" stroke-linecap="round" stroke-linejoin="round" fill="none" stroke="#000000" d="M 1713 4087.33 L 1813 4087.33 L 1798 4077.33 Z "/>
<path transform="matrix(.3333333,0,0,-.3333333,0,2338.5833)" d="M 3147 4087.33 L 3162 4077.33 L 3232 4077.33 " fill-rule="evenodd"/>
<path transform="matrix(.3333333,0,0,-.3333333,0,2338.5833)" stroke-width="1" stroke-linecap="round" stroke-linejoin="round" fill="none" stroke="#000000" d="M 3147 4087.33 L 3162 4077.33 L 3232 4077.33 Z "/>
<path transform="matrix(.3333333,0,0,-.3333333,0,2338.5833)" d="M 3147 4087.33 L 3247 4087.33 L 3232 4077.33 " fill-rule="evenodd"/>
<path transform="matrix(.3333333,0,0,-.3333333,0,2338.5833)" stroke-width="1" stroke-linecap="round" stroke-linejoin="round" fill="none" stroke="#000000" d="M 3147 4087.33 L 3247 4087.33 L 3232 4077.33 Z "/>
<path transform="matrix(.3333333,0,0,-.3333333,0,2338.5833)" d="M 1728 4077.33 L 1745 4071.33 L 1781 4071.33 " fill-rule="evenodd"/>
<path transform="matrix(.3333333,0,0,-.3333333,0,2338.5833)" stroke-width="1" stroke-linecap="round" stroke-linejoin="round" fill="none" stroke="#000000" d="M 1728 4077.33 L 1745 4071.33 L 1781 4071.33 Z "/>
<path transform="matrix(.3333333,0,0,-.3333333,0,2338.5833)" d="M 1728 4077.33 L 1798 4077.33 L 1781 4071.33 " fill-rule="evenodd"/>
<path transform="matrix(.3333333,0,0,-.3333333,0,2338.5833)" stroke-width="1" stroke-linecap="round" stroke-linejoin="round" fill="none" stroke="#000000" d="M 1728 4077.33 L 1798 4077.33 L 1781 4071.33 Z "/>
<path transform="matrix(.3333333,0,0,-.3333333,0,2338.5833)" d="M 3162 4077.33 L 3179 4071.33 L 3215 4071.33 " fill-rule="evenodd"/>
<path transform="matrix(.3333333,0,0,-.3333333,0,2338.5833)" stroke-width="1" stroke-linecap="round" stroke-linejoin="round" fill="none" stroke="#000000" d="M 3162 4077.33 L 3179 4071.33 L 3215 4071.33 Z "/>
<path transform="matrix(.3333333,0,0,-.3333333,0,2338.5833)" d="M 3162 4077.33 L 3232 4077.33 L 3215 4071.33 " fill-rule="evenodd"/>
<path transform="matrix(.3333333,0,0,-.3333333,0,2338.5833)" stroke-width="1" stroke-linecap="round" stroke-linejoin="round" fill="none" stroke="#000000" d="M 3162 4077.33 L 3232 4077.33 L 3215 4071.33 Z "/>
<path transform="matrix(.3333333,0,0,-.3333333,0,2338.5833)" d="M 1745 4071.33 L 1781 4071.33 L 1763 4069.33 " fill-rule="evenodd"/>
<path transform="matrix(.3333333,0,0,-.3333333,0,2338.5833)" stroke-width="1" stroke-linecap="round" stroke-linejoin="round" fill="none" stroke="#000000" d="M 1745 4071.33 L 1781 4071.33 L 1763 4069.33 Z "/>
<path transform="matrix(.3333333,0,0,-.3333333,0,2338.5833)" d="M 3179 4071.33 L 3215 4071.33 L 3197 4069.33 " fill-rule="evenodd"/>
<path transform="matrix(.3333333,0,0,-.3333333,0,2338.5833)" stroke-width="1" stroke-linecap="round" stroke-linejoin="round" fill="none" stroke="#000000" d="M 3179 4071.33 L 3215 4071.33 L 3197 4069.33 Z "/>
<path transform="matrix(.3333333,0,0,-.3333333,0,2338.5833)" stroke-width="6" stroke-linecap="round" stroke-linejoin="round" fill="none" stroke="#000000" d="M 3277 4149.33 L 3276 4164.33 L 3272 4178.33 L 3265 4192.33 L 3256 4203.33 L 3246 4213.33 L 3233 4221.33 L 3219 4227.33 L 3205 4229.33 L 3190 4229.33 L 3175 4227.33 L 3161 4221.33 L 3149 4213.33 L 3138 4203.33 L 3129 4192.33 L 3122 4178.33 L 3118 4164.33 L 3117 4149.33 L 3118 4135.33 L 3122 4121.33 L 3129 4107.33 L 3138 4095.33 L 3149 4085.33 L 3161 4078.33 L 3175 4072.33 L 3190 4070.33 L 3205 4070.33 L 3219 4072.33 L 3233 4078.33 L 3246 4085.33 L 3256 4095.33 L 3265 4107.33 L 3272 4121.33 L 3276 4135.33 L 3277 4149.33 Z "/>
<path transform="matrix(.3333333,0,0,-.3333333,0,2338.5833)" stroke-width="6" stroke-linecap="round" stroke-linejoin="round" fill="none" stroke="#000000" d="M 4885 5913.33 L 4885 1103.33 "/>
<path transform="matrix(.3333333,0,0,-.3333333,0,2338.5833)" stroke-width="6" stroke-linecap="round" stroke-linejoin="round" fill="none" stroke="#000000" d="M 75 5913.33 L 75 1103.33 L 4885 1103.33 "/>
<path transform="matrix(.3333333,0,0,-.3333333,0,2338.5833)" stroke-width="6" stroke-linecap="round" stroke-linejoin="round" fill="none" stroke="#000000" d="M 75 5913.33 L 4885 5913.33 "/>
</g>
</svg>
