<?xml version="1.0" encoding="UTF-8" standalone="no"?>
<!DOCTYPE svg PUBLIC "-//W3C//DTD SVG 1.1//EN" "http://www.w3.org/Graphics/SVG/1.1/DTD/svg11.dtd">
<svg xmlns="http://www.w3.org/2000/svg" xmlns:xlink="http://www.w3.org/1999/xlink" version="1.1" width="1653.5556pt" height="2338.5833pt" viewBox="0 0 1653.5556 2338.5833">
<g enable-background="new">
<path transform="matrix(.3333333,0,0,-.3333333,0,2338.5833)" stroke-width="6" stroke-linecap="round" stroke-linejoin="round" fill="none" stroke="#000000" d="M 1763 3027.33 L 1798 2990.33 L 1834 2955.33 L 1872 2922.33 L 1913 2891.33 L 1954 2863.33 L 1997 2836.33 L 2042 2812.33 L 2087 2790.33 L 2134 2771.33 L 2182 2754.33 L 2230 2739.33 L 2279 2727.33 L 2329 2718.33 L 2379 2711.33 L 2429 2707.33 L 2480 2706.33 L 2531 2707.33 L 2581 2711.33 L 2631 2718.33 L 2681 2727.33 L 2730 2739.33 L 2778 2754.33 L 2826 2771.33 L 2873 2790.33 L 2918 2812.33 L 2963 2836.33 L 3006 2863.33 L 3047 2891.33 L 3088 2922.33 L 3126 2955.33 L 3162 2990.33 L 3197 3027.33 "/>
<path transform="matrix(.3333333,0,0,-.3333333,0,2338.5833)" stroke-width="6" stroke-linecap="round" stroke-linejoin="round" fill="none" stroke="#000000" d="M 4885 5913.33 L 4885 1103.33 "/>
<path transform="matrix(.3333333,0,0,-.3333333,0,2338.5833)" stroke-width="6" stroke-linecap="round" stroke-linejoin="round" fill="none" stroke="#000000" d="M 75 5913.33 L 75 1103.33 L 4885 1103.33 "/>
<path transform="matrix(.3333333,0,0,-.3333333,0,2338.5833)" stroke-width="6" stroke-linecap="round" stroke-linejoin="round" fill="none" stroke="#000000" d="M 75 5913.33 L 4885 5913.33 M 1763 3027.33 L 3197 3027.33 M 2480 3027.33 L 2480 2706.33 M 2320 3027.33 L 2320 2720.33 M 2159 3027.33 L 2159 2761.33 M 1999 3027.33 L 1999 2835.33 M 2640 3027.33 L 2640 2720.33 M 2801 3027.33 L 2801 2761.33 M 2961 3027.33 L 2961 2835.33 "/>
<path transform="matrix(.3333333,0,0,-.3333333,0,2338.5833)" stroke-width="6" stroke-linecap="round" stroke-linejoin="round" fill="none" stroke="#000000" d="M 1763 3027.33 L 1824 2999.33 L 1887 2974.33 L 1950 2952.33 L 2015 2932.33 L 2080 2915.33 L 2145 2900.33 L 2212 2888.33 L 2278 2879.33 L 2345 2872.33 L 2413 2868.33 L 2480 2867.33 L 2547 2868.33 L 2615 2872.33 L 2682 2879.33 L 2748 2888.33 L 2815 2900.33 L 2880 2915.33 L 2945 2932.33 L 3010 2952.33 L 3073 2974.33 L 3136 2999.33 L 3197 3027.33 "/>
</g>
</svg>
