<?xml version="1.0" encoding="UTF-8" standalone="no"?>
<!DOCTYPE svg PUBLIC "-//W3C//DTD SVG 1.1//EN" "http://www.w3.org/Graphics/SVG/1.1/DTD/svg11.dtd">
<svg xmlns="http://www.w3.org/2000/svg" xmlns:xlink="http://www.w3.org/1999/xlink" version="1.1" width="1653.5556pt" height="2338.5833pt" viewBox="0 0 1653.5556 2338.5833">
<g enable-background="new">
<path transform="matrix(.3333333,0,0,-.3333333,0,2338.5833)" stroke-width="6" stroke-linecap="round" stroke-linejoin="round" fill="none" stroke="#000000" d="M 2003 4149.33 L 2002 4175.33 L 1998 4201.33 L 1991 4226.33 L 1981 4250.33 L 1969 4273.33 L 1954 4295.33 L 1937 4315.33 L 1919 4333.33 L 1898 4349.33 L 1875 4362.33 L 1852 4373.33 L 1827 4381.33 L 1802 4387.33 L 1776 4390.33 L 1750 4390.33 L 1724 4387.33 L 1698 4381.33 L 1674 4373.33 L 1650 4362.33 L 1628 4349.33 L 1607 4333.33 L 1588 4315.33 L 1571 4295.33 L 1557 4273.33 L 1545 4250.33 L 1535 4226.33 L 1528 4201.33 L 1524 4175.33 L 1522 4149.33 L 1524 4123.33 L 1528 4098.33 L 1535 4073.33 L 1545 4048.33 L 1557 4025.33 L 1571 4004.33 L 1588 3984.33 L 1607 3966.33 L 1628 3950.33 L 1650 3937.33 L 1674 3926.33 L 1698 3918.33 L 1724 3912.33 L 1750 3909.33 L 1776 3909.33 L 1802 3912.33 L 1827 3918.33 L 1852 3926.33 L 1875 3937.33 L 1898 3950.33 L 1919 3966.33 L 1937 3984.33 L 1954 4004.33 L 1969 4025.33 L 1981 4048.33 L 1991 4073.33 L 1998 4098.33 L 2002 4123.33 L 2003 4149.33 Z "/>
<path transform="matrix(.3333333,0,0,-.3333333,0,2338.5833)" stroke-width="6" stroke-linecap="round" stroke-linejoin="round" fill="none" stroke="#000000" d="M 3438 4149.33 L 3436 4175.33 L 3432 4201.33 L 3425 4226.33 L 3415 4250.33 L 3403 4273.33 L 3389 4295.33 L 3372 4315.33 L 3353 4333.33 L 3332 4349.33 L 3310 4362.33 L 3286 4373.33 L 3262 4381.33 L 3236 4387.33 L 3210 4390.33 L 3184 4390.33 L 3158 4387.33 L 3133 4381.33 L 3108 4373.33 L 3085 4362.33 L 3062 4349.33 L 3041 4333.33 L 3023 4315.33 L 3006 4295.33 L 2991 4273.33 L 2979 4250.33 L 2969 4226.33 L 2962 4201.33 L 2958 4175.33 L 2957 4149.33 L 2958 4123.33 L 2962 4098.33 L 2969 4073.33 L 2979 4048.33 L 2991 4025.33 L 3006 4004.33 L 3023 3984.33 L 3041 3966.33 L 3062 3950.33 L 3085 3937.33 L 3108 3926.33 L 3133 3918.33 L 3158 3912.33 L 3184 3909.33 L 3210 3909.33 L 3236 3912.33 L 3262 3918.33 L 3286 3926.33 L 3310 3937.33 L 3332 3950.33 L 3353 3966.33 L 3372 3984.33 L 3389 4004.33 L 3403 4025.33 L 3415 4048.33 L 3425 4073.33 L 3432 4098.33 L 3436 4123.33 L 3438 4149.33 Z "/>
<path transform="matrix(.3333333,0,0,-.3333333,0,2338.5833)" stroke-width="6" stroke-linecap="round" stroke-linejoin="round" fill="none" stroke="#000000" d="M 4885 5913.33 L 4885 1103.33 "/>
<path transform="matrix(.3333333,0,0,-.3333333,0,2338.5833)" stroke-width="6" stroke-linecap="round" stroke-linejoin="round" fill="none" stroke="#000000" d="M 75 5913.33 L 75 1103.33 L 4885 1103.33 "/>
<path transform="matrix(.3333333,0,0,-.3333333,0,2338.5833)" stroke-width="6" stroke-linecap="round" stroke-linejoin="round" fill="none" stroke="#000000" d="M 75 5913.33 L 4885 5913.33 "/>
</g>
</svg>
