<?xml version="1.0" encoding="UTF-8" standalone="no"?>
<!DOCTYPE svg PUBLIC "-//W3C//DTD SVG 1.1//EN" "http://www.w3.org/Graphics/SVG/1.1/DTD/svg11.dtd">
<svg xmlns="http://www.w3.org/2000/svg" xmlns:xlink="http://www.w3.org/1999/xlink" version="1.1" width="1653.5556pt" height="2338.5833pt" viewBox="0 0 1653.5556 2338.5833">
<g enable-background="new">
<path transform="matrix(.3333333,0,0,-.3333333,0,2338.5833)" stroke-width="6" stroke-linecap="round" stroke-linejoin="round" fill="none" stroke="#000000" d="M 4885 5913.33 L 4885 1103.33 "/>
<path transform="matrix(.3333333,0,0,-.3333333,0,2338.5833)" stroke-width="6" stroke-linecap="round" stroke-linejoin="round" fill="none" stroke="#000000" d="M 75 5913.33 L 75 1103.33 L 4885 1103.33 "/>
<path transform="matrix(.3333333,0,0,-.3333333,0,2338.5833)" stroke-width="6" stroke-linecap="round" stroke-linejoin="round" fill="none" stroke="#000000" d="M 75 5913.33 L 4885 5913.33 "/>
<path transform="matrix(.3333333,0,0,-.3333333,0,2338.5833)" stroke-width="6" stroke-linecap="round" stroke-linejoin="round" fill="none" stroke="#000000" d="M 700 3192.33 L 681 3177.33 L 663 3161.33 L 648 3143.33 L 634 3123.33 L 623 3102.33 L 614 3079.33 L 608 3056.33 L 604 3033.33 L 603 3009.33 L 604 2985.33 L 608 2961.33 L 614 2938.33 L 623 2916.33 L 634 2895.33 L 648 2875.33 L 663 2857.33 L 681 2840.33 L 700 2826.33 L 719 2840.33 L 736 2857.33 L 752 2875.33 L 765 2895.33 L 776 2916.33 L 785 2938.33 L 792 2961.33 L 796 2985.33 L 797 3009.33 L 796 3033.33 L 792 3056.33 L 785 3079.33 L 776 3102.33 L 765 3123.33 L 752 3143.33 L 736 3161.33 L 719 3177.33 L 700 3192.33 Z "/>
<path transform="matrix(.3333333,0,0,-.3333333,0,2338.5833)" stroke-width="6" stroke-linecap="round" stroke-linejoin="round" fill="none" stroke="#000000" d="M 4260 2826.33 L 4279 2840.33 L 4297 2857.33 L 4312 2875.33 L 4326 2895.33 L 4337 2916.33 L 4346 2938.33 L 4352 2961.33 L 4356 2985.33 L 4357 3009.33 L 4356 3033.33 L 4352 3056.33 L 4346 3079.33 L 4337 3102.33 L 4326 3123.33 L 4312 3143.33 L 4297 3161.33 L 4279 3177.33 L 4260 3192.33 L 4241 3177.33 L 4224 3161.33 L 4208 3143.33 L 4195 3123.33 L 4184 3102.33 L 4175 3079.33 L 4168 3056.33 L 4164 3033.33 L 4163 3009.33 L 4164 2985.33 L 4168 2961.33 L 4175 2938.33 L 4184 2916.33 L 4195 2895.33 L 4208 2875.33 L 4224 2857.33 L 4241 2840.33 L 4260 2826.33 Z "/>
</g>
</svg>
