<?xml version="1.0" encoding="UTF-8" standalone="no"?>
<!DOCTYPE svg PUBLIC "-//W3C//DTD SVG 1.1//EN" "http://www.w3.org/Graphics/SVG/1.1/DTD/svg11.dtd">
<svg xmlns="http://www.w3.org/2000/svg" xmlns:xlink="http://www.w3.org/1999/xlink" version="1.1" width="1653.5556pt" height="2338.5833pt" viewBox="0 0 1653.5556 2338.5833">
<g enable-background="new">
<path transform="matrix(.3333333,0,0,-.3333333,0,2338.5833)" stroke-width="6" stroke-linecap="round" stroke-linejoin="round" fill="none" stroke="#000000" d="M 2164 4149.33 L 2162 4182.33 L 2159 4214.33 L 2152 4245.33 L 2143 4276.33 L 2132 4307.33 L 2118 4336.33 L 2102 4364.33 L 2083 4390.33 L 2063 4415.33 L 2041 4439.33 L 2016 4460.33 L 1991 4479.33 L 1963 4497.33 L 1935 4512.33 L 1905 4524.33 L 1874 4535.33 L 1843 4542.33 L 1811 4547.33 L 1779 4550.33 L 1747 4550.33 L 1714 4547.33 L 1683 4542.33 L 1651 4535.33 L 1621 4524.33 L 1591 4512.33 L 1562 4497.33 L 1535 4479.33 L 1509 4460.33 L 1485 4439.33 L 1463 4415.33 L 1442 4390.33 L 1424 4364.33 L 1408 4336.33 L 1394 4307.33 L 1383 4276.33 L 1374 4245.33 L 1367 4214.33 L 1363 4182.33 L 1362 4149.33 "/>
<path transform="matrix(.3333333,0,0,-.3333333,0,2338.5833)" stroke-width="6" stroke-linecap="round" stroke-linejoin="round" fill="none" stroke="#000000" d="M 3598 4149.33 L 3597 4182.33 L 3593 4214.33 L 3586 4245.33 L 3577 4276.33 L 3566 4307.33 L 3552 4336.33 L 3536 4364.33 L 3518 4390.33 L 3497 4415.33 L 3475 4439.33 L 3451 4460.33 L 3425 4479.33 L 3398 4497.33 L 3369 4512.33 L 3339 4524.33 L 3309 4535.33 L 3277 4542.33 L 3246 4547.33 L 3213 4550.33 L 3181 4550.33 L 3149 4547.33 L 3117 4542.33 L 3086 4535.33 L 3055 4524.33 L 3025 4512.33 L 2997 4497.33 L 2969 4479.33 L 2944 4460.33 L 2919 4439.33 L 2897 4415.33 L 2877 4390.33 L 2858 4364.33 L 2842 4336.33 L 2828 4307.33 L 2817 4276.33 L 2808 4245.33 L 2801 4214.33 L 2798 4182.33 L 2796 4149.33 "/>
<path transform="matrix(.3333333,0,0,-.3333333,0,2338.5833)" stroke-width="6" stroke-linecap="round" stroke-linejoin="round" fill="none" stroke="#000000" d="M 4885 5913.33 L 4885 1103.33 "/>
<path transform="matrix(.3333333,0,0,-.3333333,0,2338.5833)" stroke-width="6" stroke-linecap="round" stroke-linejoin="round" fill="none" stroke="#000000" d="M 75 5913.33 L 75 1103.33 L 4885 1103.33 "/>
<path transform="matrix(.3333333,0,0,-.3333333,0,2338.5833)" stroke-width="6" stroke-linecap="round" stroke-linejoin="round" fill="none" stroke="#000000" d="M 75 5913.33 L 4885 5913.33 "/>
</g>
</svg>
